<?xml version="1.0" standalone="no"?>
<!DOCTYPE svg PUBLIC "-//W3C//DTD SVG 20010904//EN"
 "http://www.w3.org/TR/2001/REC-SVG-20010904/DTD/svg10.dtd">
<svg version="1.0" xmlns="http://www.w3.org/2000/svg"
 width="512.000000pt" height="512.000000pt" viewBox="0 0 512.000000 512.000000"
 preserveAspectRatio="xMidYMid meet">
<metadata>
Created by potrace 1.14, written by Peter Selinger 2001-2017
</metadata>
<g transform="translate(0.000000,512.000000) scale(0.100000,-0.100000)"
fill="#000000" stroke="none">
<path d="M2336 4469 c-294 -34 -629 -163 -875 -338 -222 -158 -466 -431 -570
-638 -28 -56 -27 -61 6 -21 153 190 371 352 598 441 519 206 1112 93 1524
-289 352 -326 532 -870 429 -1294 -20 -82 -75 -215 -101 -242 -6 -7 -30 -36
-51 -63 -141 -180 -297 -283 -495 -329 -34 -8 -66 -18 -70 -22 -13 -14 296 5
387 25 371 79 671 284 882 604 199 301 269 708 182 1047 -68 261 -188 469
-386 665 -240 238 -632 411 -1028 454 -110 12 -328 12 -432 0z"/>
<path d="M1915 3939 c-450 -36 -856 -295 -1084 -694 -130 -228 -190 -485 -178
-760 36 -777 513 -1431 1247 -1710 120 -46 258 -82 380 -100 128 -18 328 -27
365 -16 l30 9 -32 1 c-104 3 -344 79 -485 154 -412 218 -692 618 -759 1085
-15 107 -6 392 16 487 27 120 64 226 120 340 72 149 141 249 248 362 153 159
314 269 478 324 84 28 110 32 240 37 314 10 501 -54 692 -237 37 -35 67 -59
67 -52 0 20 -40 92 -101 181 -197 288 -509 495 -849 565 -103 21 -286 32 -395
24z"/>
<path d="M4165 3605 c4 -11 20 -55 36 -97 64 -174 94 -441 71 -639 -75 -633
-530 -1127 -1162 -1260 -151 -32 -401 -32 -550 0 -456 96 -740 323 -856 681
-25 79 -27 97 -28 260 0 148 3 187 21 253 11 42 18 77 14 77 -9 0 -45 -57 -95
-153 -163 -305 -200 -688 -101 -1032 67 -233 219 -472 394 -622 357 -305 820
-417 1265 -303 519 131 1000 599 1196 1165 169 485 139 1010 -85 1470 -49 102
-136 246 -120 200z"/>
</g>
</svg>
